<svg id="Layer_1" data-name="Layer 1" xmlns="http://www.w3.org/2000/svg" xmlns:xlink="http://www.w3.org/1999/xlink" viewBox="0 0 449.98 442.57"><defs><style>.cls-1{fill:none;}.cls-2{fill:#c4c4c4;}.cls-3{fill:#73357a;}.cls-4{opacity:0.1;}.cls-5{clip-path:url(#clip-path);}.cls-6{fill:#fff;}.cls-7{clip-path:url(#clip-path-2);}.cls-8{fill:#37474f;}.cls-9{opacity:0.4;}.cls-10{clip-path:url(#clip-path-3);}.cls-11{clip-path:url(#clip-path-4);}.cls-12{clip-path:url(#clip-path-5);}.cls-13{opacity:0.05;}.cls-14{clip-path:url(#clip-path-6);}.cls-15{opacity:0.15;}.cls-16{clip-path:url(#clip-path-7);}.cls-17{clip-path:url(#clip-path-8);}.cls-18{clip-path:url(#clip-path-9);}.cls-19{clip-path:url(#clip-path-10);}.cls-20{clip-path:url(#clip-path-11);}.cls-21{opacity:0.3;}.cls-22{opacity:0.2;}.cls-23{clip-path:url(#clip-path-16);}.cls-24{clip-path:url(#clip-path-17);}.cls-25{clip-path:url(#clip-path-18);}.cls-26{clip-path:url(#clip-path-19);}.cls-27{clip-path:url(#clip-path-20);}.cls-28{clip-path:url(#clip-path-21);}.cls-29{clip-path:url(#clip-path-22);}.cls-30{clip-path:url(#clip-path-23);}.cls-31{fill:#455a64;}.cls-32{opacity:0.85;}.cls-33{clip-path:url(#clip-path-24);}.cls-34{clip-path:url(#clip-path-25);}.cls-35{clip-path:url(#clip-path-26);}.cls-36{clip-path:url(#clip-path-27);}.cls-37{clip-path:url(#clip-path-28);}.cls-38{clip-path:url(#clip-path-29);}.cls-39{clip-path:url(#clip-path-30);}.cls-40{clip-path:url(#clip-path-31);}.cls-41{opacity:0.8;}.cls-42{clip-path:url(#clip-path-32);}.cls-43{clip-path:url(#clip-path-33);}.cls-44{fill:#ff9466;}.cls-45{fill:#e0e0e0;}.cls-46{fill:#f0f0f0;}.cls-47{fill:#263238;}.cls-48{fill:#b27362;}.cls-49{clip-path:url(#clip-path-34);}</style><clipPath id="clip-path"><rect class="cls-1" y="363.02" width="38.88" height="26.59"/></clipPath><clipPath id="clip-path-2"><rect class="cls-1" x="411.3" y="175.25" width="29.99" height="30.79"/></clipPath><clipPath id="clip-path-3"><rect class="cls-1" x="200.21" y="46.57" width="40.28" height="23.59"/></clipPath><clipPath id="clip-path-4"><rect class="cls-1" x="119.07" y="93.57" width="48.81" height="23.55"/></clipPath><clipPath id="clip-path-5"><rect class="cls-1" x="175.71" y="97.93" width="12.45" height="5"/></clipPath><clipPath id="clip-path-6"><rect class="cls-1" x="173.16" y="100.58" width="6.62" height="8.32"/></clipPath><clipPath id="clip-path-7"><rect class="cls-1" x="116.88" y="114.78" width="15.92" height="53.51"/></clipPath><clipPath id="clip-path-8"><rect class="cls-1" x="182.63" y="108.28" width="13.18" height="24.49"/></clipPath><clipPath id="clip-path-9"><rect class="cls-1" x="184.59" y="67.82" width="19.68" height="33.31"/></clipPath><clipPath id="clip-path-10"><rect class="cls-1" x="136.76" y="105.99" width="33.86" height="55.71"/></clipPath><clipPath id="clip-path-11"><rect class="cls-1" x="197.96" y="70.67" width="33.84" height="55.71"/></clipPath><clipPath id="clip-path-16"><rect class="cls-1" x="132.02" y="105.6" width="38.6" height="56.11"/></clipPath><clipPath id="clip-path-17"><rect class="cls-1" x="193.2" y="70.28" width="38.6" height="56.11"/></clipPath><clipPath id="clip-path-18"><rect class="cls-1" x="124.03" y="234.61" width="73.92" height="44.97"/></clipPath><clipPath id="clip-path-19"><rect class="cls-1" x="122.59" y="247.94" width="9.6" height="13.5"/></clipPath><clipPath id="clip-path-20"><rect class="cls-1" x="122.59" y="256.14" width="6.88" height="5.3"/></clipPath><clipPath id="clip-path-21"><rect class="cls-1" x="251.97" y="160.75" width="73.92" height="44.97"/></clipPath><clipPath id="clip-path-22"><rect class="cls-1" x="250.54" y="174.08" width="9.6" height="13.5"/></clipPath><clipPath id="clip-path-23"><rect class="cls-1" x="250.54" y="182.28" width="6.88" height="5.3"/></clipPath><clipPath id="clip-path-24"><rect class="cls-1" x="206.87" y="253.28" width="44.16" height="53.36"/></clipPath><clipPath id="clip-path-25"><rect class="cls-1" x="275.81" y="209.68" width="44.17" height="57.35"/></clipPath><clipPath id="clip-path-26"><rect class="cls-1" x="272.62" y="385.87" width="12.96" height="55.94"/></clipPath><clipPath id="clip-path-27"><rect class="cls-1" x="278.12" y="356.06" width="50.16" height="32.16"/></clipPath><clipPath id="clip-path-28"><rect class="cls-1" x="343.89" y="345.54" width="17.35" height="41.97"/></clipPath><clipPath id="clip-path-29"><rect class="cls-1" x="285.45" y="363.4" width="41.33" height="72.99"/></clipPath><clipPath id="clip-path-30"><rect class="cls-1" x="361.52" y="324.45" width="36.54" height="61.44"/></clipPath><clipPath id="clip-path-31"><rect class="cls-1" x="346.37" y="317.09" width="50.24" height="30.8"/></clipPath><clipPath id="clip-path-32"><rect class="cls-1" x="352.94" y="324.42" width="45.12" height="61.46"/></clipPath><clipPath id="clip-path-33"><rect class="cls-1" x="281.68" y="363.39" width="45.1" height="73"/></clipPath><clipPath id="clip-path-34"><rect class="cls-1" x="39.35" y="208.52" width="32.95" height="45.32"/></clipPath></defs><title>Compare</title><path class="cls-2" d="M96,372.75c16.85,9.73,16.85,25.5,0,35.23s-44.16,9.72-61,0-16.85-25.5,0-35.23,44.17-9.73,61,0"/><path class="cls-2" d="M416.89,218.23c16.85,9.73,16.85,25.5,0,35.23s-44.16,9.73-61,0-16.85-25.5,0-35.23,44.17-9.72,61,0"/><path class="cls-3" d="M38.41,389.6c-2.5-4-10.15-8.4-20.22-10.58S-2,374.15.33,368.31c2.5-6.3,11.85-6.61,21-2.86,10,4.1,17.4,14.25,17.54,20.63Z"/><g class="cls-4"><g class="cls-5"><path d="M38.41,389.6c-2.5-4-10.15-8.4-20.22-10.58S-2,374.15.33,368.31c2.5-6.3,11.85-6.61,21-2.86,10,4.1,17.4,14.25,17.54,20.63Z"/></g></g><path class="cls-6" d="M39.2,387.78a.76.76,0,0,1-.68-.43c-8-16.53-26.51-19.2-32.36-18.3a.75.75,0,1,1-.22-1.48c6.13-1,25.57,1.83,33.94,19.13a.75.75,0,0,1-.35,1,.8.8,0,0,1-.33.08"/><path class="cls-3" d="M38.41,389.6s-4.81-19.06-17-29.3c-3.62-3-7.48-6.85-10.18-9.48-5.79-5.64-3.38-11.78,4.65-11.67,11.92.17,20.64,10.21,24.42,23.35s-1.9,27.1-1.9,27.1"/><path class="cls-6" d="M40.31,382.21a.77.77,0,0,1-.75-.69c-2.24-24.23-20.73-36.41-25.76-37.7a.75.75,0,1,1,.38-1.45c6.1,1.56,24.58,14.2,26.88,39a.75.75,0,0,1-.68.82h-.07"/><path class="cls-3" d="M411.34,206c-.21-.11.21-15,7.24-23.26s14.85-8.69,19.77-6.18,3.49,7.65-3,10.31-14.68,7.55-17.28,17.38Z"/><g class="cls-4"><g class="cls-7"><path d="M411.34,206c-.21-.11.21-15,7.24-23.26s14.85-8.69,19.77-6.18,3.49,7.65-3,10.31-14.68,7.55-17.28,17.38Z"/></g></g><path class="cls-6" d="M414,201.86a.48.48,0,0,0,.5-.36c3.52-14.88,13-21.6,20.65-22.92a.48.48,0,1,0-.16-.94c-8,1.37-17.79,8.3-21.42,23.64a.47.47,0,0,0,.35.57H414"/><path class="cls-3" d="M410.44,233.66c1.26-3.83,5.39-6.12,10.07-6.19,4.86-.08,10.51-.13,12.31-4.1s.71-9.6,1.6-12.26c1.07-3.21,2.47-5.08,9-6.59,5.82-1.36,9.37-6.56,3.81-9.28s-11.4-1.7-15.43-.26-4.34,3.29-9.78,2.4-9.81,2.27-10.4,5.57Z"/><path class="cls-6" d="M411.43,220.4a.47.47,0,0,0,.47-.28c5.45-12.23,24.75-22.22,30.93-22.49a.47.47,0,0,0,.46-.5.47.47,0,0,0-.5-.45c-6.35.27-26.18,10.51-31.76,23a.47.47,0,0,0,.24.63.29.29,0,0,0,.16,0"/><path class="cls-6" d="M416.31,213.18h.11a.47.47,0,0,0,.4-.54c-1-6.66.77-10.77.79-10.81a.48.48,0,0,0-.87-.4c-.08.18-1.94,4.39-.87,11.35a.49.49,0,0,0,.44.41"/><path class="cls-6" d="M412.83,217.77a.62.62,0,0,0,.23,0c3.85-1.73,11.78.3,11.86.32a.49.49,0,0,0,.58-.34.47.47,0,0,0-.34-.58c-.34-.09-8.33-2.14-12.49-.27a.48.48,0,0,0,.16.91"/><path class="cls-8" d="M127.19,123a3.46,3.46,0,0,1-1.75-.47L63.19,86.56A14.57,14.57,0,0,0,41.33,99.18v1.53a3.5,3.5,0,0,1-7,0V99.18A21.57,21.57,0,0,1,66.69,80.5l62.25,35.94a3.5,3.5,0,0,1-1.75,6.53"/><path class="cls-8" d="M234.87,60.8a3.45,3.45,0,0,1-1.74-.47L170.87,24.38A14.58,14.58,0,0,0,149,37v1.53a3.5,3.5,0,0,1-7,0V37a21.58,21.58,0,0,1,32.36-18.68l62.26,36a3.5,3.5,0,0,1-1.76,6.53"/><path class="cls-3" d="M240.5,49.1l-4.06-2.34v0c-2.92-1.76-20.82,8.36-28,13.67a62.39,62.39,0,0,0-23.85,38.38v0a6.35,6.35,0,0,0-6.73.18c-3.85,2.22-6.73,7.58-6.73,7.58h0a20.3,20.3,0,0,0-4.21-8.66l1-.22-4.15-2.4h0c-4.07-2.33-9.56-2.35-16.43.51-7.35,3.07-25.92,14-28.19,19-3.78,8.27-1.93,26.15,0,35.18,1.65,7.74,5.11,13.3,9.81,16.06h0l4.34,2.5-.21-.89c4.17.92,9,0,14.26-3,13.8-8,25-29.34,25-47.74,0,0,1.75-8.25,5.6-10.47s5.6,4,5.6,4c0,10,3.32,17.13,8.6,20.19l4.19,2.42.19-.88c3.56.55,7.65-.32,12-2.83,13.8-8,24.81-27.43,28.19-47.22,1.59-9.28,3.12-24.51,1.49-31.77ZM147.26,157c-10.66,6.16-19.3-.38-19.3-14.59s8.64-30.73,19.3-36.88,19.3.38,19.3,14.59-8.64,30.73-19.3,36.88m61.18-35.32c-10.66,6.16-19.31-.38-19.31-14.59s8.65-30.72,19.31-36.88,19.3.38,19.3,14.59-8.64,30.73-19.3,36.88"/><g class="cls-9"><g class="cls-10"><path class="cls-6" d="M240.49,49.1c-3-1.7-20.82,8.4-28,13.7a58.56,58.56,0,0,0-8.23,7.36l-4.06-2.34a59.19,59.19,0,0,1,8.23-7.37c7.19-5.31,25.09-15.43,28-13.68h0Z"/></g></g><g class="cls-9"><g class="cls-11"><path class="cls-6" d="M167.88,97.67h0c-4.08-2.4-9.61-2.44-16.54.45-7.35,3.06-25.92,14-28.19,19l-4.06-2.34c2.27-5,20.84-16,28.19-19,6.87-2.86,12.36-2.84,16.43-.51h0l0,0s0,0,0,0Z"/></g></g><g class="cls-9"><g class="cls-12"><path class="cls-6" d="M188.16,100.86a6.52,6.52,0,0,0-6.25.46,11.58,11.58,0,0,0-2.13,1.61l-4.07-2.35A12.11,12.11,0,0,1,177.85,99a6.37,6.37,0,0,1,6.73-.19v0Z"/></g></g><g class="cls-13"><g class="cls-14"><path d="M179.78,102.93a25.49,25.49,0,0,0-4.59,6h0a24,24,0,0,0-2-5.46,21.48,21.48,0,0,1,2.55-2.86Z"/></g></g><g class="cls-15"><g class="cls-16"><path d="M132.8,168.29,128.87,166h0c-4.7-2.75-8.16-8.31-9.81-16-1.93-9-3.78-26.91,0-35.18l4.06,2.34c-3.78,8.27-1.93,26.15,0,35.19,1.63,7.66,5,13.19,9.67,16"/></g></g><g class="cls-15"><g class="cls-17"><path d="M195.81,132.77l-3.76-2.17c-5.28-3.07-8.6-10.14-8.6-20.19a11.23,11.23,0,0,0-.82-2c3.35-1.12,4.88,4.33,4.88,4.33,0,9.85,3.2,16.85,8.3,20"/></g></g><g class="cls-13"><g class="cls-18"><path d="M204.27,70.16a63.18,63.18,0,0,0-15.61,31h0l-.06,0-.16-.09-.26-.14-3.57-2.07a63.32,63.32,0,0,1,15.62-31Z"/></g></g><path class="cls-3" d="M240.69,49.25c-2.27-2.36-20.84,8.12-28.19,13.55a62.34,62.34,0,0,0-23.85,38.37v0a6.37,6.37,0,0,0-6.73.19c-3.85,2.22-6.73,7.58-6.73,7.58h0a24,24,0,0,0-2-5.46c-3.85-7.29-11.2-9.75-21.84-5.32-7.35,3.06-25.92,14-28.19,19-3.78,8.27-1.93,26.15,0,35.19,3.38,15.88,14.39,22.63,28.19,14.66s25-29.35,25-47.75c0,0,1.75-8.25,5.6-10.47s5.6,4,5.6,4c0,18.4,11.19,26.86,25,18.89s24.81-27.42,28.19-47.22c1.93-11.25,3.78-31.27,0-35.18M151.32,159.39c-10.66,6.15-19.3-.38-19.3-14.6s8.64-30.72,19.3-36.88,19.3.38,19.3,14.59-8.64,30.73-19.3,36.89m61.18-35.32c-10.66,6.15-19.3-.38-19.3-14.6s8.64-30.72,19.3-36.88,19.3.38,19.3,14.6-8.64,30.72-19.3,36.88"/><path class="cls-8" d="M124.85,120.83a5.62,5.62,0,0,1,2.34-4.48c1.3-.75,2.34.05,2.34,1.77a5.6,5.6,0,0,1-2.34,4.48c-1.29.74-2.34,0-2.34-1.77"/><path class="cls-8" d="M237.22,56c0-1.73-1.05-2.52-2.34-1.77a5.6,5.6,0,0,0-2.34,4.47c0,1.73,1.05,2.52,2.34,1.77A5.6,5.6,0,0,0,237.22,56"/><g class="cls-9"><g class="cls-19"><path class="cls-3" d="M170.63,122.5c0,14.22-8.64,30.73-19.3,36.88-5.81,3.36-11,3-14.56-.43,3,.88,6.63.32,10.5-1.91,10.66-6.16,19.3-22.67,19.3-36.88,0-6.47-1.79-11.35-4.75-14.17,5.3,1.52,8.81,7.46,8.81,16.51"/></g></g><g class="cls-9"><g class="cls-20"><path class="cls-3" d="M231.8,87.19c0,14.21-8.64,30.72-19.3,36.88-5.8,3.34-11,2.94-14.54-.42,3,.87,6.61.3,10.47-1.93,10.66-6.15,19.31-22.67,19.31-36.88,0-6.47-1.8-11.36-4.76-14.17,5.31,1.52,8.82,7.45,8.82,16.52"/></g></g><g class="cls-21"><g class="cls-19"><g class="cls-9"><g class="cls-19"><path d="M170.63,122.5c0,14.22-8.64,30.73-19.3,36.88-5.81,3.36-11,3-14.56-.43,3,.88,6.63.32,10.5-1.91,10.66-6.16,19.3-22.67,19.3-36.88,0-6.47-1.79-11.35-4.75-14.17,5.3,1.52,8.81,7.46,8.81,16.51"/></g></g></g></g><g class="cls-21"><g class="cls-20"><g class="cls-9"><g class="cls-20"><path d="M231.8,87.19c0,14.21-8.64,30.72-19.3,36.88-5.8,3.34-11,2.94-14.54-.42,3,.87,6.61.3,10.47-1.93,10.66-6.15,19.31-22.67,19.31-36.88,0-6.47-1.8-11.36-4.76-14.17,5.31,1.52,8.82,7.45,8.82,16.52"/></g></g></g></g><g class="cls-22"><g class="cls-23"><path class="cls-3" d="M151.32,159.39c-10.66,6.15-19.3-.38-19.3-14.6s8.64-30.72,19.3-36.88,19.31.38,19.31,14.6-8.65,30.72-19.31,36.88"/></g></g><g class="cls-22"><g class="cls-24"><path class="cls-3" d="M212.5,124.07c-10.66,6.15-19.3-.38-19.3-14.59s8.64-30.73,19.3-36.88,19.3.37,19.3,14.59-8.64,30.72-19.3,36.88"/></g></g><path class="cls-3" d="M198,279.58l-4.26-2.46-.33-7.86-50.42-29.11c-6.87-4-13.67-4.12-18.91-1.16l3.72-2.14c5.28-3.16,12.22-3.1,19.24,1l50.43,29.11Z"/><g class="cls-9"><g class="cls-25"><path class="cls-6" d="M198,279.58l-4.26-2.46-.33-7.86-50.42-29.11c-6.87-4-13.67-4.12-18.91-1.16l3.72-2.14c5.28-3.16,12.22-3.1,19.24,1l50.43,29.11Z"/></g></g><path class="cls-3" d="M132.19,247.94a8.27,8.27,0,0,0-1.53,3.64l-.41,2.3a7.64,7.64,0,0,1-1.31,3.13,7.45,7.45,0,0,1-2.4,2.14l-4,2.29a7.53,7.53,0,0,0,3.61-5.21l.41-2.31c.62-3.51,2.82-5.66,5.58-6"/><g class="cls-15"><g class="cls-26"><path d="M132.19,247.94a8.27,8.27,0,0,0-1.53,3.64l-.41,2.3a7.64,7.64,0,0,1-1.31,3.13,7.45,7.45,0,0,1-2.4,2.14l-4,2.29a7.53,7.53,0,0,0,3.61-5.21l.41-2.31c.62-3.51,2.82-5.66,5.58-6"/></g></g><path class="cls-3" d="M193.89,281.93,137,249.08a7.79,7.79,0,0,0-4.83-1.14c-2.76.32-5,2.47-5.58,6l-.41,2.31a7.53,7.53,0,0,1-3.61,5.21l-.15.09a7.54,7.54,0,0,1-7.54,0,2.13,2.13,0,0,1-1-2.22l1.09-6.1c1.18-6.6,4.41-11.41,8.78-14L124,239c5.24-3,12-2.8,18.91,1.16l50.42,29.11.33,7.86Z"/><g class="cls-15"><g class="cls-27"><path d="M125.43,258.48a7.56,7.56,0,0,1-2.84,3l4-2.29a7.45,7.45,0,0,0,2.4-2.14,7,7,0,0,0,.53-.87Z"/></g></g><path class="cls-3" d="M325.89,205.72l-4.26-2.46-.33-7.86-50.42-29.11c-6.87-4-13.67-4.12-18.91-1.16l3.72-2.14c5.28-3.16,12.22-3.1,19.24.95l50.43,29.11Z"/><g class="cls-9"><g class="cls-28"><path class="cls-6" d="M325.89,205.72l-4.26-2.46-.33-7.86-50.42-29.11c-6.87-4-13.67-4.12-18.91-1.16l3.72-2.14c5.28-3.16,12.22-3.1,19.24.95l50.43,29.11Z"/></g></g><path class="cls-3" d="M260.13,174.08a8.26,8.26,0,0,0-1.52,3.64l-.41,2.3a7.54,7.54,0,0,1-3.71,5.27l-4,2.29a7.55,7.55,0,0,0,3.62-5.21l.41-2.31c.61-3.51,2.81-5.66,5.57-6"/><g class="cls-15"><g class="cls-29"><path d="M260.13,174.08a8.26,8.26,0,0,0-1.52,3.64l-.41,2.3a7.54,7.54,0,0,1-3.71,5.27l-4,2.29a7.55,7.55,0,0,0,3.62-5.21l.41-2.31c.61-3.51,2.81-5.66,5.57-6"/></g></g><path class="cls-3" d="M321.83,208.07,265,175.22a7.79,7.79,0,0,0-4.83-1.14c-2.76.32-5,2.47-5.57,6l-.41,2.31a7.58,7.58,0,0,1-3.62,5.21l-.15.09a7.54,7.54,0,0,1-7.54,0,2.13,2.13,0,0,1-1-2.22l1.09-6.1c1.18-6.6,4.41-11.41,8.79-14l.29-.17c5.23-3,12-2.8,18.9,1.16l50.43,29.11.32,7.86Z"/><g class="cls-15"><g class="cls-30"><path d="M253.37,184.62a7.5,7.5,0,0,1-2.84,3l3.95-2.29a7.45,7.45,0,0,0,2.4-2.14,6.3,6.3,0,0,0,.53-.87Z"/></g></g><path d="M329.42,195.39c-2.19.87-4.66,1.91-7.31,3.12-11.8,5.38-27.22,13.81-36.51,22.18-11.64,10.51-15.74,17.15-22.19,20.88s-10.54,1.8-22.18,4.73c-9.28,2.36-24.7,11.73-36.5,20-2.66,1.86-5.14,3.67-7.31,5.32a30.33,30.33,0,0,0,.54,12.68s2.52-2.24,3.79,2.69,2.07,15.31,4.51,19.92a13.15,13.15,0,0,0,4.69,5.37l.06,0h0a9.6,9.6,0,0,0,2.33,1h0a13.84,13.84,0,0,0,1.37.27h0a13.67,13.67,0,0,0,4.09-.13c.23,0,.46-.08.69-.14s.72-.16,1.09-.26.75-.22,1.14-.34a28.42,28.42,0,0,0,3.62-1.45c.5-.22,1-.48,1.55-.75s1.27-.68,1.94-1.07c15-8.65,21.23-20.56,24.93-31.26s2.72-22.2,9.63-26.19a7,7,0,0,1,.66-.34,4.79,4.79,0,0,1,.61-.24c5.55-1.78,4.91,9.65,8.37,15.65a15,15,0,0,0,5.26,5.7,12.17,12.17,0,0,0,1.25.63,5.4,5.4,0,0,0,.67.25c.23.08.46.15.7.21s.42.11.64.15a.52.52,0,0,0,.21,0l.48.08a4.87,4.87,0,0,0,.55.06l.38,0a17.81,17.81,0,0,0,6.39-.88l.59-.19a41.54,41.54,0,0,0,7.81-3.62c15-8.66,20.15-21.15,22.59-28.58s3.25-18.75,4.52-25.14,3.79-7.07,3.79-7.07c1.8-8.33.54-13.3.54-13.3m-79.54,77a47.61,47.61,0,0,1-5.17,14.91h0a41.85,41.85,0,0,1-16.32,16.29c-8.13,4.59-12.88,3.42-15.73.47a6.47,6.47,0,0,1-.5-.56c-.16-.19-.31-.38-.46-.58a5.72,5.72,0,0,1-.39-.57c-.11-.17-.22-.35-.32-.53a3.62,3.62,0,0,1-.24-.43,3.72,3.72,0,0,1-.21-.39c-.11-.22-.22-.45-.32-.67h0a19,19,0,0,1-.79-2s0,0,0-.05c-.14-.43-.27-.86-.39-1.27-.21-.75-.38-1.47-.52-2.11l-.09-.41-.09-.39c-1.17-5.29-2.57-16.21,0-20.35s9.38-10.85,20.54-16.08c.38-.2.78-.38,1.19-.56a48.71,48.71,0,0,1,5.1-2c.67-.22,1.33-.41,2-.59a35.76,35.76,0,0,1,5-1c.53-.07,1-.12,1.52-.15a15.62,15.62,0,0,1,1.65-.05h.33l.6,0a5.1,5.1,0,0,1,3.35,1.18c2.24,2.36,1.59,10.48.34,17.85m68.65-42c-.91,5.18-2.87,16.36-11.22,25.54a37.77,37.77,0,0,1-8.87,7.18c-9.45,5.6-14.81,4.41-17.86,1.28l-.05-.06q-.18-.18-.33-.36c-.13-.14-.25-.29-.36-.43l-.18-.23c-.16-.22-.32-.45-.46-.68s-.33-.54-.48-.83c-.08-.13-.15-.27-.22-.41l-.11-.24c-.06-.12-.11-.24-.16-.36s-.09-.19-.12-.28a21.06,21.06,0,0,1-1.16-3.79c-1.24-5.93-1.91-13.28.33-18.23s11-14,19.5-20q2.93-2.07,5.48-3.58l.65-.38.7-.4c.65-.37,1.29-.71,1.9-1l.69-.35.9-.43c.51-.25,1-.47,1.49-.67,1-.42,1.9-.77,2.75-1l.65-.2.17-.05c.14,0,.29-.09.44-.12s.45-.12.66-.17.54-.12.79-.17a11.51,11.51,0,0,1,1.3-.18l.23,0h0a6.11,6.11,0,0,1,2.95.33c2.57,1.16,1.15,13.72,0,20.35"/><path d="M278.31,272.71h0l-3.9-2.25a14.88,14.88,0,0,1-5.42-5.81c-2.22-3.83-2.75-9.9-4.31-13.3,5.55-1.78,4.91,9.65,8.37,15.65a15,15,0,0,0,5.26,5.7"/><path d="M206.26,306.89c-2.44-4.61-3.25-15-4.51-19.92s-3.79-2.69-3.79-2.69l-.45-.26c.06.19.12.39.18.61,1.26,4.93,2.07,15.31,4.51,19.92A13,13,0,0,0,207,310l4,2.31a13.15,13.15,0,0,1-4.69-5.37"/><path d="M197.42,271.6l-4.06-2.34a30.39,30.39,0,0,0,.53,12.67l3.62,2.09.45.26a30.33,30.33,0,0,1-.54-12.68"/><path class="cls-31" d="M325.36,193.05c-2.19.86-4.66,1.91-7.32,3.12-11.79,5.37-27.21,13.8-36.5,22.17-11.64,10.51-15.75,17.16-22.19,20.88S248.81,241,237.17,244c-9.28,2.35-24.7,11.73-36.5,20-2.66,1.85-5.14,3.67-7.31,5.32l4.06,2.34c2.17-1.65,4.65-3.46,7.31-5.32,11.8-8.25,27.22-17.62,36.5-20,11.64-2.93,15.73-1,22.18-4.73S274,231.2,285.6,220.69c9.29-8.37,24.71-16.8,36.51-22.18,2.65-1.21,5.12-2.25,7.31-3.12Z"/><path class="cls-8" d="M329.42,195.39c-2.19.87-4.66,1.91-7.31,3.12-11.8,5.38-27.22,13.81-36.51,22.18-11.64,10.51-15.74,17.15-22.19,20.88s-10.54,1.8-22.18,4.73c-9.28,2.36-24.7,11.73-36.5,20-2.66,1.86-5.14,3.67-7.31,5.32a30.33,30.33,0,0,0,.54,12.68s2.52-2.24,3.79,2.69,2.07,15.31,4.51,19.92a13.15,13.15,0,0,0,4.69,5.37l.06,0a9.06,9.06,0,0,0,2.33,1h0a13.84,13.84,0,0,0,1.37.27h0a13.67,13.67,0,0,0,4.09-.13c.23,0,.46-.08.69-.14s.72-.16,1.09-.26.75-.22,1.14-.34a28.42,28.42,0,0,0,3.62-1.45c.5-.22,1-.48,1.55-.75s1.27-.68,1.94-1.07c15-8.65,21.23-20.56,24.93-31.26s2.72-22.2,9.63-26.19a7,7,0,0,1,.66-.34,4.79,4.79,0,0,1,.61-.24c5.55-1.78,4.91,9.65,8.37,15.65a15,15,0,0,0,5.26,5.7h0a10.38,10.38,0,0,0,1.25.62,5.4,5.4,0,0,0,.67.25c.23.08.46.15.7.21s.42.11.64.15a.52.52,0,0,0,.21,0l.48.08a4.87,4.87,0,0,0,.55.06l.38,0a17.81,17.81,0,0,0,6.39-.88l.59-.19a41.54,41.54,0,0,0,7.81-3.62c15-8.66,20.15-21.15,22.59-28.58s3.25-18.75,4.52-25.14,3.79-7.07,3.79-7.07c1.8-8.33.54-13.3.54-13.3m-79.54,77a47.61,47.61,0,0,1-5.17,14.91h0a41.85,41.85,0,0,1-16.32,16.29c-8.13,4.59-12.88,3.42-15.73.47a6.47,6.47,0,0,1-.5-.56,6.15,6.15,0,0,1-.46-.58,5.72,5.72,0,0,1-.39-.57c-.11-.17-.22-.35-.32-.53a3.62,3.62,0,0,1-.24-.43,3.72,3.72,0,0,1-.21-.39c-.11-.22-.22-.45-.32-.67h0a19,19,0,0,1-.79-2s0,0,0-.05c-.14-.43-.27-.86-.39-1.27-.21-.75-.38-1.47-.52-2.11l-.09-.41-.09-.39c-1.17-5.29-2.57-16.21,0-20.35s9.38-10.85,20.54-16.08c.38-.2.78-.38,1.19-.56a48.71,48.71,0,0,1,5.1-2c.67-.22,1.33-.41,2-.59a35.76,35.76,0,0,1,5-1c.53-.07,1-.12,1.52-.15a15.62,15.62,0,0,1,1.65-.05h.33a3.86,3.86,0,0,1,.6,0,5.1,5.1,0,0,1,3.35,1.18c2.24,2.36,1.59,10.48.34,17.85m68.65-42c-.91,5.18-2.87,16.36-11.22,25.54a37.77,37.77,0,0,1-8.87,7.18c-9.45,5.6-14.81,4.41-17.86,1.28l-.05-.06q-.18-.18-.33-.36c-.13-.14-.25-.29-.36-.43l-.18-.23c-.16-.22-.32-.45-.46-.68s-.33-.54-.48-.83c-.08-.13-.15-.27-.22-.41l-.11-.24c-.06-.12-.11-.24-.16-.36s-.09-.19-.12-.28a21.06,21.06,0,0,1-1.16-3.79c-1.24-5.93-1.91-13.28.33-18.23s11-14,19.5-20q2.93-2.07,5.48-3.58l.65-.38.7-.4c.65-.37,1.29-.71,1.9-1l.69-.35.9-.43c.51-.25,1-.47,1.49-.67,1-.42,1.9-.77,2.75-1l.65-.2.17-.05c.14,0,.29-.09.44-.12s.45-.12.66-.17.54-.12.79-.17a11.51,11.51,0,0,1,1.3-.18l.23,0a6.11,6.11,0,0,1,2.95.33c2.57,1.16,1.15,13.72,0,20.35"/><path d="M249.88,272.36a47.61,47.61,0,0,1-5.17,14.91h0a41.85,41.85,0,0,1-16.32,16.29c-8.13,4.59-12.88,3.42-15.73.47,2.81.67,6.57.06,11.67-2.82a41.72,41.72,0,0,0,16.32-16.29h0A47.61,47.61,0,0,0,245.82,270c1.09-6.44,1.73-13.45.37-16.69a5.1,5.1,0,0,1,3.35,1.18c2.24,2.36,1.59,10.48.34,17.85"/><path d="M318.53,230.4c-.91,5.18-2.87,16.36-11.22,25.54a37.77,37.77,0,0,1-8.87,7.18c-9.45,5.6-14.81,4.41-17.86,1.28,3.17.79,7.6,0,13.8-3.62a38,38,0,0,0,8.87-7.19c8.35-9.17,10.31-20.36,11.22-25.54s2-14.27,1.11-18.33a6.11,6.11,0,0,1,2.95.33c2.57,1.16,1.15,13.72,0,20.35"/><g class="cls-32"><g class="cls-33"><path class="cls-3" d="M249.88,272.36a47.61,47.61,0,0,1-5.17,14.91h0a41.85,41.85,0,0,1-16.32,16.29c-8.13,4.59-12.88,3.42-15.73.47a6.47,6.47,0,0,1-.5-.56,6.15,6.15,0,0,1-.46-.58,5.72,5.72,0,0,1-.39-.57c-.11-.17-.22-.35-.32-.53a3.62,3.62,0,0,1-.24-.43,3.72,3.72,0,0,1-.21-.39c-.11-.22-.22-.45-.32-.67h0a19,19,0,0,1-.79-2s0,0,0-.05c-.14-.43-.27-.86-.39-1.27-.21-.75-.38-1.47-.52-2.11l-.09-.41-.09-.39c-1.17-5.29-2.57-16.21,0-20.35s9.38-10.85,20.54-16.08c.38-.2.78-.38,1.19-.56a48.71,48.71,0,0,1,5.1-2c.67-.22,1.33-.41,2-.59a35.76,35.76,0,0,1,5-1c.53-.07,1-.12,1.52-.15a15.62,15.62,0,0,1,1.65-.05h.33a3.86,3.86,0,0,1,.6,0,5.1,5.1,0,0,1,3.35,1.18c2.24,2.36,1.59,10.48.34,17.85"/></g></g><g class="cls-32"><g class="cls-34"><path class="cls-3" d="M318.53,230.4c-.91,5.18-2.87,16.36-11.22,25.54a37.77,37.77,0,0,1-8.87,7.18c-9.45,5.6-14.81,4.41-17.86,1.28l-.05-.06q-.18-.18-.33-.36c-.13-.14-.25-.29-.36-.43l-.18-.23c-.16-.22-.32-.45-.46-.68s-.33-.54-.48-.83c-.08-.13-.15-.27-.22-.41l-.11-.24c-.06-.12-.11-.24-.16-.36s-.09-.19-.12-.28a21.06,21.06,0,0,1-1.16-3.79c-1.24-5.93-1.91-13.28.33-18.23s11-14,19.5-20q2.93-2.07,5.48-3.58l.65-.38.7-.4c.65-.37,1.29-.71,1.9-1l.69-.35.9-.43c.51-.25,1-.47,1.49-.67,1-.42,1.9-.77,2.75-1l.65-.2.17-.05c.14,0,.29-.09.44-.12s.45-.12.66-.17.54-.12.79-.17a11.51,11.51,0,0,1,1.3-.18l.23,0a6.11,6.11,0,0,1,2.95.33c2.57,1.16,1.15,13.72,0,20.35"/></g></g><path class="cls-8" d="M398.05,329.67l-62.44-36a20.91,20.91,0,0,0-31.37,18.11V314a3,3,0,0,0,6,0v-2.23a14.91,14.91,0,0,1,22.37-12.92l62.44,36a3.06,3.06,0,0,0,1.5.4,3,3,0,0,0,1.5-5.6"/><path class="cls-3" d="M328.28,359.42a10.34,10.34,0,0,0-4.85-1c-4.8,0-11.42,2.14-18.77,6.73-11.77,7.37-26.12,19.85-27.74,42.27-1.37,18.9,3.17,31.05,8.65,34.41l-3.82-2.19c-5.59-3.16-10.28-15.39-8.89-34.56,1.62-22.41,16-34.9,27.74-42.26,7.35-4.6,14-6.74,18.77-6.74a10.17,10.17,0,0,1,5.07,1.14Z"/><g class="cls-15"><g class="cls-35"><path d="M282.18,388.21l-4.06-2.34a49.41,49.41,0,0,0-5.26,19.19c-1.39,19.17,3.3,31.4,8.89,34.56l3.82,2.19c-5.48-3.36-10-15.51-8.65-34.41a49.41,49.41,0,0,1,5.26-19.19"/></g></g><g class="cls-9"><g class="cls-36"><path class="cls-6" d="M328.28,359.42a10.34,10.34,0,0,0-4.85-1c-4.8,0-11.42,2.14-18.77,6.73-7.87,4.93-16.9,12.14-22.49,23.09l-4.05-2.35c5.59-10.94,14.61-18.15,22.48-23.07,7.35-4.6,14-6.74,18.77-6.74a10.17,10.17,0,0,1,5.07,1.14Z"/></g></g><path class="cls-3" d="M396.61,320.93a10.91,10.91,0,0,0-5.83-1.5c-4.87,0-10.55,2.32-15.72,5.06-12.74,6.75-23.29,18.33-26,26.62-3.1,9.53.17,27.75,10.64,35.38q.75.56,1.53,1l-3.54-2,0,0-.15-.09a19.94,19.94,0,0,1-1.87-1.22c-10.47-7.63-13.74-25.85-10.64-35.38,2.69-8.28,13.25-19.87,26-26.62,5.17-2.74,10.85-5.06,15.72-5.06a10.92,10.92,0,0,1,5.73,1.46l3.87,2.2a2.82,2.82,0,0,1,.29.18"/><g class="cls-15"><g class="cls-37"><path d="M349.07,351.11a24.39,24.39,0,0,1,1.36-3.23l-4.06-2.34a22.63,22.63,0,0,0-1.36,3.23c-3.1,9.53.17,27.75,10.64,35.38a19.94,19.94,0,0,0,1.87,1.22l.15.09,0,0,3.54,2q-.78-.47-1.53-1c-10.47-7.63-13.74-25.85-10.64-35.38"/></g></g><path class="cls-8" d="M330.1,373.3a1,1,0,0,1-.87-.5,1,1,0,0,1,.37-1.36l1.48-.86v-1a6.57,6.57,0,0,1,2.83-5.31l7.56-4.37a2.49,2.49,0,0,1,2.52-.12,3,3,0,0,1,1.3,2.61l.49-.27a1,1,0,0,1,1.36.36,1,1,0,0,1-.36,1.37l-3.48,2v-3.33c0-.67-.2-1-.31-1a.69.69,0,0,0-.52.12L334.91,366a4.61,4.61,0,0,0-1.83,3.58v2.18l-2.48,1.43a1,1,0,0,1-.5.13"/><path class="cls-3" d="M325.52,379.43a104.31,104.31,0,0,1-9.92,27.63c-8.31,15.64-17.43,24.7-23,28.46a5.1,5.1,0,0,1-7.14-1.47,5.15,5.15,0,0,0,3.08-.87c5.58-3.75,14.7-12.81,23-28.46a104.19,104.19,0,0,0,9.92-27.63c1.4-7,1.38-11.39,1.1-13.64v0l.87,0c1.83,0,2.68.45,2.79.65.44.86,1.27,5.51-.7,15.38"/><g class="cls-15"><g class="cls-38"><path d="M325.52,379.43a104.31,104.31,0,0,1-9.92,27.63c-8.31,15.64-17.43,24.7-23,28.46a5.1,5.1,0,0,1-7.14-1.47,5.15,5.15,0,0,0,3.08-.87c5.58-3.75,14.7-12.81,23-28.46a104.19,104.19,0,0,0,9.92-27.63c1.4-7,1.38-11.39,1.1-13.64v0l.87,0c1.83,0,2.68.45,2.79.65.44.86,1.27,5.51-.7,15.38"/></g></g><path class="cls-3" d="M389.12,377.81c-3,4.76-9.48,8.08-15.86,8.08a17.65,17.65,0,0,1-10.61-3.45,14.18,14.18,0,0,1-1.13-.92c.29.25.59.49.89.72a17.74,17.74,0,0,0,6.79,1.31c6.38,0,12.9-3.32,15.86-8.07,5.15-8.3,10.08-25.2,8.7-42.7-.34-4.23-1.2-6.78-2.24-8.33,2.16.11,5.55,1.16,6.3,10.66,1.38,17.51-3.54,34.41-8.7,42.7"/><g class="cls-15"><g class="cls-39"><path d="M389.12,377.81c-3,4.76-9.48,8.08-15.86,8.08a17.65,17.65,0,0,1-10.61-3.45,14.18,14.18,0,0,1-1.13-.92c.29.25.59.49.89.72a17.74,17.74,0,0,0,6.79,1.31c6.38,0,12.9-3.32,15.86-8.07,5.15-8.3,10.08-25.2,8.7-42.7-.34-4.23-1.2-6.78-2.24-8.33,2.16.11,5.55,1.16,6.3,10.66,1.38,17.51-3.54,34.41-8.7,42.7"/></g></g><path class="cls-3" d="M323.44,363.39c1.82,0,2.67.45,2.78.66.45.85,1.27,5.51-.7,15.38a104.09,104.09,0,0,1-9.92,27.63c-8.31,15.64-17.43,24.7-23,28.45a5.1,5.1,0,0,1-7.47-2.06c-2.19-4.59-4.13-12.93-3.21-25.7,1.15-15.85,9.46-28.41,25.41-38.38,6.07-3.8,11.95-6,16.12-6m0-5c-4.81,0-11.43,2.15-18.77,6.74-11.78,7.36-26.13,19.85-27.75,42.26-1.43,19.8,3.61,32.2,9.44,34.84a4.09,4.09,0,0,0,1.72.34c6.81,0,21-12.6,31.94-33.17,10.47-19.72,13.73-41.71,10.64-47.66-1.15-2.19-3.7-3.35-7.22-3.35"/><path class="cls-3" d="M390.78,324.42h0c2,0,6.2,0,7,10.69,1.38,17.51-3.54,34.41-8.7,42.7-3,4.75-9.48,8.07-15.85,8.07a17.6,17.6,0,0,1-10.61-3.44c-8.69-6.33-11.3-22.18-8.83-29.79,2.18-6.69,11.59-17.4,23.57-23.74,5.62-3,10.12-4.49,13.38-4.49m0-5c-4.87,0-10.54,2.33-15.72,5.07-12.74,6.74-23.29,18.33-26,26.62-3.09,9.52.17,27.74,10.64,35.37a22.76,22.76,0,0,0,13.56,4.4c8.38,0,16.33-4.38,20.1-10.43,5.82-9.37,10.87-27.59,9.44-45.73-.91-11.52-5.82-15.3-12-15.3"/><g class="cls-9"><g class="cls-40"><path class="cls-6" d="M390.78,319.43a10.91,10.91,0,0,1,5.83,1.5,2.82,2.82,0,0,0-.29-.18l-3.87-2.2a10.92,10.92,0,0,0-5.73-1.46c-4.87,0-10.55,2.32-15.72,5.06-11.15,5.91-20.64,15.53-24.63,23.39l4.06,2.34c4-7.86,13.47-17.48,24.63-23.39,5.17-2.74,10.85-5.06,15.72-5.06"/></g></g><path class="cls-8" d="M275.68,399.76l-62.44-36a20.92,20.92,0,0,0-31.37,18.11v2.23a3,3,0,0,0,6,0V381.9A14.92,14.92,0,0,1,210.24,369l62.45,36a3,3,0,0,0,1.49.4,3,3,0,0,0,2.61-1.5,3,3,0,0,0-1.11-4.1"/><g class="cls-41"><g class="cls-42"><path class="cls-31" d="M390.78,324.42h0c2,0,6.2,0,7,10.69,1.38,17.51-3.54,34.41-8.7,42.7-3,4.75-9.48,8.07-15.85,8.07a17.6,17.6,0,0,1-10.61-3.44c-8.69-6.33-11.3-22.18-8.83-29.79,2.18-6.69,11.59-17.4,23.57-23.74,5.62-3,10.12-4.49,13.38-4.49"/></g></g><g class="cls-41"><g class="cls-43"><path class="cls-31" d="M323.44,363.39c1.82,0,2.67.45,2.78.66.45.85,1.27,5.51-.7,15.38a104.09,104.09,0,0,1-9.92,27.63c-8.31,15.64-17.43,24.7-23,28.45a5.1,5.1,0,0,1-7.47-2.06c-2.19-4.59-4.13-12.93-3.21-25.7,1.15-15.85,9.46-28.41,25.41-38.38,6.07-3.8,11.95-6,16.12-6"/></g></g><path class="cls-8" d="M301.84,365.45A1,1,0,0,1,301,365a1,1,0,0,1,.28-1.38,638.31,638.31,0,0,1,70.51-40.71,1,1,0,0,1,.88,1.8,636.69,636.69,0,0,0-70.28,40.58,1,1,0,0,1-.55.16"/><path class="cls-44" d="M327.23,60.66c1.47,1.21,3.15,1.83,5.08,3.71a11.39,11.39,0,0,0,4.49,3.12c2.22.88,4.32.62,10.5-.37,7.56-1.21,10.82-2.48,14.08-5.26,3.81-3.26,12.34-13.07,16.47-16.92,4.36-4.08,10.36-2.5,10.36-2.5a62.77,62.77,0,0,1-8.19,17c-3.3,4.7-9.47,9.2-12.26,11.52-4.47,3.72-6.84,5.19-16.65,5.93-7.41.55-8.39.73-14.45.55-2.19-.06-3.56-.08-7.14-.38a20.49,20.49,0,0,1-4.6-.81,16.6,16.6,0,0,1-4.81-1.9,13,13,0,0,1-4.58-5.14,8.19,8.19,0,0,1-.85-3.7A5.45,5.45,0,0,1,316,62a1.53,1.53,0,0,1,.62-.46,1.86,1.86,0,0,1,1.34.29c2.32,1.19,4.65,2.82,7.08,3.76,2.06.79,3.61,1.06,3.46.65s-1.39-.79-2.66-2.23-1.59-3.44-.77-4.06.68-.49,2.15.73"/><path class="cls-45" d="M390,42.4a11.29,11.29,0,0,0-7.5-.81c-3.82,1.1-6.87,3.59-10.51,7.5s-9.78,10.22-9.78,10.22,3,7.66,9.81,10.38l14.25-13.18Z"/><rect class="cls-44" x="402.26" y="217.31" width="8.64" height="14.79"/><polygon class="cls-44" points="386.99 221.04 378.36 221.33 377.93 205.69 386.99 205.39 386.99 221.04"/><path class="cls-8" d="M414.57,106.91c0,8.25-1.46,56.22-1.46,56.22.2,2.37,2.49,6.59,2.67,15.14.25,12.4-4.52,46.44-4.52,46.44a11.35,11.35,0,0,1-9.61.19s-3.92-46.14-5.47-58.41c-1.35-10.71-3.64-39.8-3.64-39.8l-4.07,35a49.12,49.12,0,0,1,1.07,13.72c-.4,5.68-2,40.82-2,40.82a11.78,11.78,0,0,1-10,.76s-6.09-50.1-6.19-55.31c-.12-5.93,2.25-66.54,2.25-66.54Z"/><path class="cls-46" d="M408.9,46.24a7.92,7.92,0,0,1,4.16,4.33A20.3,20.3,0,0,1,414.32,58V75l.25,32c-12.4,6.54-28.15,7-41.38-2.69,0,0,.74-41.13.74-47.85,0-.31,0-.62,0-.93.48-9.61,9.94-16.2,19.26-13.8l7.83,2Z"/><path class="cls-47" d="M402.26,227.83V226.6c-.83.36-2.75,7.69-6.18,10.81-2.72,2.49-6.44,5.36-7.38,8.13s5.17,4.47,7.72,4c2.95-.53,8.08-2.61,9.37-4.54s1.89-4.78,2.93-6.19,3.46-3,4-4.63c.31-.9-.05-2.87-.49-4.54-.4-1.52-.84-3.2-1.36-3.06v.94a6.75,6.75,0,0,1-4.32,1.46c-1.26.05-4.32-.2-4.31-1.17"/><path class="cls-47" d="M378.27,218.67c-.45,0-.81.65-1.8,1.72a18.88,18.88,0,0,1-5.08,3.65c-3.24,1.62-9.53,4.11-12.37,5.4-1.78.8-1.7,2.94.14,4.17s6.28,2.1,11.6.91c2.91-.65,6.68-3.33,9.07-3.19s6.87.11,8.63-1.1,1.06-3.82.56-6c-.54-2.44-1.22-6.24-2-6.07V219c-1,1.57-6.39,2.21-8.67,1.05Z"/><path class="cls-47" d="M392.54,126.68a32,32,0,0,1-12-6.89s2.32,4.34,9.22,8.39l-.92,30.53Z"/><path class="cls-47" d="M407.23,23.23s-1.92,9-2.69,10.53a4.11,4.11,0,0,1-2.37,1.91l.13-6.36Z"/><path class="cls-47" d="M404.82,10.27a4.44,4.44,0,0,1,3.69,1.3c1.58,1.62.7,6.69-1.28,11.66l-3.62.41Z"/><path class="cls-44" d="M402.52,23.65c.73.43,1.76-1,2.66-1.9s3.83-2.22,5.29.85-1.29,7.28-3.6,8c-4,1.24-4.57-1.3-4.57-1.3L402.17,44c-6.67,7.67-18.34,3.16-13.09-.76V38.9a25.29,25.29,0,0,1-5.36.27c-2.92-.45-4.76-2.76-5.64-5.92-1.43-5.08-2-9.18-.76-19.17C378.65,3.13,391.39,3,398.26,7.35s4.26,16.3,4.26,16.3"/><path class="cls-47" d="M392.4,26.15h-.62a4.05,4.05,0,1,1,0-8.1h.62a4.05,4.05,0,1,1,0,8.1m-.62-7.42a3.37,3.37,0,1,0,0,6.74h.62a3.37,3.37,0,1,0,0-6.74Z"/><path class="cls-47" d="M380,26.15h-.62a4.05,4.05,0,1,1,0-8.1H380a4.05,4.05,0,1,1,0,8.1m-.62-7.42a3.37,3.37,0,0,0,0,6.74H380a3.37,3.37,0,1,0,0-6.74Z"/><path class="cls-47" d="M387.77,21.3a2.68,2.68,0,0,0-2.14-1.09,2.17,2.17,0,0,0-1.87.71l-.54-.42a2.79,2.79,0,0,1,2.45-1A3.32,3.32,0,0,1,388.36,21Z"/><rect class="cls-47" x="396.08" y="21.27" width="8.62" height="0.68"/><path class="cls-47" d="M402.52,24.87c.36,0,1.76-2.3,2.66-3.12,1.26-1.14-.36-11.48-.36-11.48A4.91,4.91,0,0,0,403.61,5c-1.72-1.89-4.59-2.1-9.5-2.87-2.57-.41-6.47-1.13-9-1.6-3.07-.57-5.61-1.18-7.77.7a5.46,5.46,0,0,0-1.51,6.1,5,5,0,0,0,.88,1.3,5.09,5.09,0,0,0,2.2,1.52s1.34,1.19,6,1.75a69.13,69.13,0,0,0,12.9-.24c1.35-.19,1.63,1.12,2.36,4.7.64,3.13,1.17,8.45,2.4,8.47"/><path class="cls-47" d="M404.81,11.07l4.4-2.36a2.43,2.43,0,0,0-3.33-1.1,2.62,2.62,0,0,0-1.07,3.46"/><path class="cls-48" d="M389.09,38.9s6.52-1.32,8.8-2.53A7.55,7.55,0,0,0,401,33.25a10.31,10.31,0,0,1-1.79,3.68c-1.67,2.13-10.16,3.7-10.16,3.7Z"/><path class="cls-47" d="M390.65,22A1.31,1.31,0,1,0,392,20.66,1.33,1.33,0,0,0,390.65,22"/><path class="cls-47" d="M392.75,16.61l2.8,1.54a1.69,1.69,0,0,0-.65-2.23,1.57,1.57,0,0,0-2.15.69"/><path class="cls-48" d="M389.68,31l-3,1.12a1.57,1.57,0,0,0,2,1,1.68,1.68,0,0,0,1-2.11"/><path class="cls-47" d="M378.67,17.76l2.55-2a1.55,1.55,0,0,0-2.22-.34,1.69,1.69,0,0,0-.33,2.31"/><path class="cls-47" d="M379.78,21.65a1.31,1.31,0,1,0,1.31-1.37,1.35,1.35,0,0,0-1.31,1.37"/><polygon class="cls-48" points="386.24 20.6 386.09 28.52 381.41 27.49 386.24 20.6"/><path class="cls-44" d="M427.34,90.37c-2.75-32-8.33-42.38-17.5-43.68-3.17,2.78-3.93,12.54-.62,19.06,0,0,7.13,20.08,7.53,27.38a107.48,107.48,0,0,1-1.46,20.9,3.92,3.92,0,0,1-1.44,2.38c-2,1.59-1.88,3.21-3.31,5.1-1.13,1.47-2.18,1.93-2,2.33a2.09,2.09,0,0,0,2.79.65,11,11,0,0,0,2.47-1.72,21.45,21.45,0,0,1-2.59,5.45c-2.61,4.06-2.49,6.36,3.64,5.72,3.84-.4,6.63-3.11,8.56-11.89.56-2.52,1.87-7.14,2.41-10.38,1.56-9.29,1.92-16.16,1.48-21.3"/><path class="cls-45" d="M407.23,45.69s6.69.47,10.06,4.43S423.89,61,426.15,74c0,0-4.23,6-15.26,4.39,0,0-4.8-16.17-5.23-22.89-.47-7.34,1.57-9.78,1.57-9.78"/><path class="cls-47" d="M47.09,383.73v-1.24c.49,1.45,2.75,7.7,6.19,10.83,2.73,2.49,6.45,5.37,7.4,8.15s-5.18,3.85-7.74,3.4c-3-.52-6.79-2.2-8.88-4.77-1.47-1.8-2.4-3.94-3.45-5.36s-3.46-3-4-4.64c-.31-.9.06-2.87.49-4.54s.84-3.22,1.36-3.07c0,.18,0,.94,0,.94a6.81,6.81,0,0,0,4.33,1.46c1.27.05,4.34-.2,4.33-1.16"/><path class="cls-44" d="M55.75,395.51c-.85-.75-1.7-1.49-2.47-2.2-2.4-2.18-4.23-5.9-5.28-8.43a11.88,11.88,0,0,1-.91-4.55v-4.94H38.43v8h0v.22l0,0c.41,1.8,4.39,6.58,6.64,9.7,1.51,2.09,4.39,4.76,7.82,5.21,3.26.44,4.92-.59,2.81-3.06"/><path class="cls-47" d="M80.85,375.19V374c.49,1.46,2.76,7.71,6.19,10.84,2.73,2.49,6.45,5.37,7.4,8.14s-5.18,3.86-7.73,3.41c-3-.53-6.8-2.21-8.89-4.77-1.47-1.81-2.4-3.94-3.45-5.36s-3.46-3-4-4.64c-.31-.9.06-2.88.5-4.55s.83-3.21,1.36-3.07v.95a6.81,6.81,0,0,0,4.32,1.46c1.27.05,4.34-.2,4.33-1.17"/><path class="cls-44" d="M89.51,387c-.85-.76-1.7-1.49-2.47-2.2-2.4-2.19-4.23-5.9-5.28-8.43a11.89,11.89,0,0,1-.91-4.56v-4.93H72.2v8h0v.22l0,0c.42,1.8,4.39,6.58,6.65,9.7,1.51,2.09,4.38,4.75,7.82,5.21,3.25.44,4.92-.59,2.8-3.06"/><path class="cls-8" d="M40.16,249.2c-6.71,14.66.24,66.29.24,66.29-.2,2.38-2.92,7.06-3.94,17.53-1.19,12.37,1.88,43.42,1.88,43.42a9.38,9.38,0,0,0,8.75.35s8.25-46.77,9.8-59.07c1.35-10.73,4-34.33,4-34.33l7.39,34.27a63.32,63.32,0,0,0-2.34,10.59c-.7,7.24,6.31,40.92,6.31,40.92s3,1.09,8.65.26c0,0,2.48-44.7,3.13-53.41,1.1-14.64-2.78-60.3-5.47-69Z"/><path class="cls-47" d="M60.84,283.39,63,269.77s9.22-1.91,13.4-5.84c0,0-4.39,5.46-10.9,7.25l-2.45,10.48,4.28,31.73Z"/><path class="cls-44" d="M65.72,197.88s7.1-.95,11.61,4.94L94.05,224.6s19.54-9.78,20.5-10.93.42-3.51.16-4.8-.7-4.15-1-5c-.5-1.4,1.58-1,2.8.29s1.77,3.88,2.38,4.32,2.57-2,2.86-2.31c1.08-1.12,2.66-3.87,4.5-3.51a1.93,1.93,0,0,1,1.39,1.12,7.34,7.34,0,0,0,1.11,2.39,5.46,5.46,0,0,1,.88,1c.26.52.11,1,.26,1.53.21.74,1.12,1.08,1.38,1.81.19.52,0,1.1.09,1.64.06.35.26.67.32,1a2.44,2.44,0,0,1-.72,1.9c-1.59,1.89-3.75,2.61-5.83,3.76-1.73,1-3.51,1.37-5.5,2.26S94.56,238,90.91,236s-22.52-24-22.52-24c-5.44-9-2.67-14.14-2.67-14.14"/><path class="cls-3" d="M52,198.28h0c-8.6.6-9.2,4.75-11.36,9.3a14.7,14.7,0,0,0-.4,11.08l6,17.35s-2.81,6.78-6.06,13.19c15,8.4,33.83,4,38.35-2.14.19-1.3-1-11.46-1.69-18.1,2.65-6.65,3.35-10.86,2.23-15.25C77,205.55,68.92,197.6,65.36,197.89Z"/><path class="cls-47" d="M62.22,190.38l-6.34,0a16,16,0,0,1-16.07-15.93,19.18,19.18,0,0,1,38.35-.17,16,16,0,0,1-15.94,16.07"/><path class="cls-47" d="M53.93,150.71c2.74,4-.17,6.79-4.2,9.53s-7.66,4.42-10.4.39-1.23-8.53,2.8-11.27,9.06-2.68,11.8,1.35"/><path class="cls-47" d="M44.06,163.18l-4.05,3a2.45,2.45,0,0,1,.43-3.52,2.65,2.65,0,0,1,3.62.51"/><path class="cls-44" d="M70.75,163.76c2,1.19,4.56,6.27,4.36,17-.17,9-3.1,11.3-4.57,11.95s-4.31.27-7.08-.17l.16,5.49s4.66,3.81,4.43,6.31-6.45,3.64-10,1.22A41.06,41.06,0,0,1,51.57,200a.51.51,0,0,1-.15-.37V185.87s-1.62,1.59-4.39-.81c-2.28-2-3.06-5.33-1.29-7.14A4,4,0,0,1,52,179.15s4.4.14,10.26-3.1a16.48,16.48,0,0,0,8.45-12.29"/><path class="cls-47" d="M65,178.48a1.14,1.14,0,1,1-1.2-1.12,1.15,1.15,0,0,1,1.2,1.12"/><path class="cls-48" d="M65.33,186.15,68,187a1.37,1.37,0,0,1-1.72,1,1.45,1.45,0,0,1-.93-1.79"/><path class="cls-47" d="M74.31,175,72,173.36a1.34,1.34,0,0,1,1.91-.4,1.47,1.47,0,0,1,.4,2"/><path class="cls-47" d="M73.79,177.62a1.14,1.14,0,1,1-2.27.12,1.15,1.15,0,0,1,1.07-1.24,1.17,1.17,0,0,1,1.2,1.12"/><polygon class="cls-48" points="68.66 176.42 68.63 183.84 72.23 182.71 68.66 176.42"/><path class="cls-48" d="M63.46,192.48c-2.91-.37-8.9-2.06-9.85-4.42a6.16,6.16,0,0,0,2.12,3c1.79,1.52,7.79,3.25,7.79,3.25Z"/><path class="cls-47" d="M70.25,177.58a1.45,1.45,0,0,0-1.21-.52c-.73.07-1.9,1.21-1.9,1.21l-.67-.89A4.7,4.7,0,0,1,68.94,176a2.57,2.57,0,0,1,1.81.48Z"/><path class="cls-3" d="M67.44,175.35c-1.08-1.76-2.44-2.25-5.76-2.27s-5.12.79-6,2.88a5.9,5.9,0,0,0,4.75,7.55c4.5.67,6.47-2.27,7-4.07.43-1.51.56-3.17,0-4.09"/><path class="cls-47" d="M61,182.55l-.34-.05a4.55,4.55,0,0,1-3.44-2.29,5,5,0,0,1-.51-3.87c.55-1.36,1.61-2.26,5-2.24.74,0,1.35,0,1.86.08,1.81.2,2.44.73,3,1.7a4.73,4.73,0,0,1-.1,3.27,4.8,4.8,0,0,1-5.51,3.4Z"/><path class="cls-3" d="M70.13,175.74c.14-1.63,1.9-3.46,4.74-3.78,2.27-.26,4.37,1.13,4.42,3.2,0,2.54-.68,5.5-4,6.05-2.91.49-5.66-1.5-5.17-5.47"/><path class="cls-47" d="M74,180.25a3.23,3.23,0,0,1-2.19-1.16,4.28,4.28,0,0,1-.7-3.22c.11-1.24,1.58-2.64,3.85-2.9a3.75,3.75,0,0,1,.82,0,2.5,2.5,0,0,1,2.46,2.21c.06,3-1,4.67-3.14,5a4.07,4.07,0,0,1-1.1,0"/><g class="cls-4"><g class="cls-49"><path d="M55.84,250.83a9.08,9.08,0,0,1-6.77-11.08c0-.18.1-.34.15-.47a3,3,0,0,1,3.05-2,8.78,8.78,0,0,1-3.76-5.61l-1.83-10.87a12.66,12.66,0,0,1,.46-5.27l-6-7-1.12.77a15.09,15.09,0,0,0,.25,9.37l6,17.35s-2.81,6.78-6.06,13.19a38.86,38.86,0,0,0,32.14,2.13,43.82,43.82,0,0,1-16.46-.5"/></g></g><path class="cls-44" d="M24.76,241.46c7.81-31.93,13.58-42.58,23.07-42.46,2.77,3.32,2,13.32-2.37,19.39,0,0-9.76,20.59-11.32,27.91-1.37,6.43-2.92,14.52-2.82,20.05A4,4,0,0,0,32.41,269c1.78,1.93,1.79,3.49,2.94,5.63.91,1.67,1.89,2.29,1.61,2.67a2.17,2.17,0,0,1-2.93.22,11.73,11.73,0,0,1-2.22-2.13,22,22,0,0,0,1.76,5.92c2,4.52,1.52,6.82-4.58,5.21-3.82-1-6.22-4.19-6.79-13.37A69.31,69.31,0,0,1,22.1,263c.81-8.71,1.4-16.36,2.66-21.5"/></svg>